<?xml version="1.0" encoding="UTF-8"?>
<svg width="200px" height="200px" viewBox="0 0 200 200" version="1.1" xmlns="http://www.w3.org/2000/svg" xmlns:xlink="http://www.w3.org/1999/xlink">
    <title>mcp-logo</title>
    <g id="mcp-logo" stroke="none" fill="none" fill-rule="nonzero">
        <path d="M0,42.8571428 C0,19.1892857 19.1892857,0 42.8571428,0 L157.142857,0 C180.810714,0 200,19.1892857 200,42.8571428 L200,157.142857 C200,180.810714 180.810714,200 157.142857,200 L42.8571428,200 C19.1892857,200 0,180.810714 0,157.142857 L0,42.8571428 Z" id="路径" fill="#4D53E8"></path>
        <path d="M106.578599,42.8130283 C103.915523,43.3132615 101.452441,44.5696262 99.48317,46.4322528 L38.6794563,104.789129 C36.4374762,106.889136 32.9606274,106.916279 30.6861872,104.85153 C29.6236089,103.891239 29.0120268,102.529054 29,101.096254 C28.9883241,99.6634536 29.5772894,98.2913227 30.6238372,97.3135583 L91.4275508,38.944202 C93.7345006,36.7227469 98.3982801,33.3156838 104.658219,32.2923168 C111.342139,31.2065495 118.923898,33.0161617 126.094147,39.9051685 C132.852886,46.3948126 133.925306,53.6956622 133.027466,59.561302 C140.609725,58.4243502 148.280414,60.963238 153.690254,66.4003884 C160.985204,73.3892359 162.855703,80.615205 161.671053,86.955088 C160.573694,92.9205685 156.919984,97.3010783 154.687854,99.4351727 L100.97957,151.002883 L115.482178,164.930657 C116.532853,165.908705 117.124501,167.283612 117.112643,168.719627 C117.100785,170.155642 116.486511,171.520574 115.419828,172.481109 C113.144003,174.534699 109.675984,174.50216 107.439029,172.406228 L89.0333111,154.746908 C87.9951309,153.779014 87.4055245,152.422877 87.4055245,151.002883 C87.4055245,149.582889 87.9951309,148.226752 89.0333111,147.258857 L146.644705,91.9471219 C148.601665,90.1088361 149.965175,87.7272828 150.560285,85.1080355 C151.059085,82.4996978 150.635105,78.6807918 145.647105,73.8759592 C141.232726,69.6452105 136.818346,69.5328897 133.177106,70.4189757 C130.963467,70.9643379 128.856221,71.8754046 126.942107,73.114674 L126.792467,73.2020346 L79.0822521,119.016426 C76.8420434,121.108791 73.374053,121.135907 71.1014529,119.078826 C70.0372502,118.120295 69.4233911,116.759101 69.4091694,115.326293 C69.3949477,113.893485 69.9816666,112.520355 71.0266329,111.540855 L118.686968,65.7763842 L118.761788,65.6765435 C120.033728,63.7920507 120.981448,61.6829164 121.555068,59.4864215 C122.490318,55.7923164 122.303268,51.4742071 118.038528,47.3807393 C113.237579,42.7631079 109.309529,42.3637452 106.578599,42.8130283 L106.578599,42.8130283 Z" id="路径" fill="#FFFFFF"></path>
        <path d="M112.603627,52.5340991 C113.674456,53.4967263 114.291118,54.8646331 114.303022,56.3037771 C114.314926,57.742921 113.720978,59.1208239 112.666219,60.1010022 L64.7705404,106.002712 C63.4144253,107.872731 62.4130747,109.975382 61.8161807,112.206321 C60.8647767,115.79591 61.0149984,120.135935 65.4590564,124.400917 C69.890596,128.653392 74.3471725,128.75345 78.0025667,127.865433 C80.2684103,127.302606 82.4341062,126.36456 84.3869881,125.063803 L132.282667,79.1620935 C134.531584,77.0651687 138.013055,77.0379941 140.29449,79.0995571 C141.364464,80.0584105 141.982998,81.4215791 142,82.8575181 C142.016311,84.2934572 141.429564,85.6705818 140.382119,86.6539529 L92.1859969,132.855837 C92.0235039,133.007631 91.8521153,133.149631 91.6727395,133.281084 L91.6477026,133.293592 L91.6226656,133.318606 L91.5600733,133.368635 L91.3722962,133.506215 L90.7213355,133.94397 C87.6816142,135.924005 84.329878,137.378507 80.8067047,138.246474 C74.1719138,139.822391 65.2712793,139.45968 57.3721227,131.892777 C49.5105215,124.350888 49.1474857,115.883461 50.7874057,109.629822 C51.7663712,105.992062 53.4319792,102.574676 55.6946473,99.5614635 L55.8448689,99.3738543 L55.8949428,99.311318 L55.9199798,99.2863034 L60.4141117,102.538196 L55.9324983,99.2737961 C56.0686264,99.1025718 56.2149395,98.939683 56.3706448,98.7860123 L104.566767,52.5966355 C106.817462,50.4920528 110.307827,50.4648513 112.591108,52.5340991 L112.603627,52.5340991 Z" id="路径" fill="#FFFFFF"></path>
    </g>
</svg>