<svg t="1761596418849" class="icon" viewBox="0 0 1024 1024" version="1.1" xmlns="http://www.w3.org/2000/svg" p-id="1735" width="200" height="200"><path d="M0 219.428571C0 98.249143 98.249143 0 219.428571 0h585.142858c121.179429 0 219.428571 98.249143 219.428571 219.428571v585.142858c0 121.179429-98.249143 219.428571-219.428571 219.428571H219.428571C98.249143 1024 0 925.750857 0 804.571429V219.428571z" fill="#2c2c2c" p-id="1736" data-spm-anchor-id="a313x.search_index.0.i2.1d733a81hOiLuc" class="selected"></path><path d="M531.584 365.750857c22.272 0 41.984 4.059429 59.008 12.16a93.257143 93.257143 0 0 1 39.588571 34.651429c9.398857 14.848 14.061714 31.981714 14.061715 51.565714 0 2.377143-2.468571 3.968-7.314286 4.461714l-61.293714 4.059429h-1.974857c-4.150857 0-6.144-0.694857-6.144-1.974857v-2.468572a36.626286 36.626286 0 0 0-9.892572-26.733714 34.980571 34.980571 0 0 0-26.038857-9.892571 34.870857 34.870857 0 0 0-26.130286 9.874285 36.626286 36.626286 0 0 0-9.892571 26.752v87.899429c0 10.88 3.364571 19.785143 9.892571 26.422857 6.930286 6.838857 16.329143 10.496 26.148572 10.002286a34.925714 34.925714 0 0 0 26.112-10.002286 36.022857 36.022857 0 0 0 9.801143-26.422857c0-1.28 0.694857-2.486857 2.194285-3.474286a8.905143 8.905143 0 0 1 5.924572-0.987428l61.275428 3.273142c4.955429 0.292571 7.314286 0.987429 7.314286 1.974858v2.084571c0.402286 18.285714-4.48 36.278857-14.043429 51.876571a94.336 94.336 0 0 1-39.588571 34.925715A133.430857 133.430857 0 0 1 531.565714 658.285714c-22.272 0-42.057143-4.461714-59.099428-13.074285a95.323429 95.323429 0 0 1-39.588572-37.028572 106.916571 106.916571 0 0 1-14.061714-55.332571v-82.56c0-20.681143 4.662857-38.893714 14.153143-54.637715a95.817143 95.817143 0 0 1 39.606857-36.827428 127.707429 127.707429 0 0 1 58.989714-13.074286z m-332.013714 3.254857a9.892571 9.892571 0 0 1 9.398857 5.248l49.499428 80.475429c0.493714 1.097143 1.28 1.590857 2.285715 1.590857 1.188571 0 1.974857-0.493714 2.56-1.590857l49.408-80.365714c1.974857-3.565714 4.937143-5.357714 9.398857-5.357715h60.781714c5.248 0 7.826286 2.56 7.826286 7.716572v270.262857c0 5.229714-2.578286 7.716571-7.826286 7.716571h-61.257143c-5.156571 0-7.734857-2.578286-7.734857-7.716571v-144.036572c0-1.590857-0.493714-2.578286-1.481143-2.779428-0.987429-0.292571-1.792 0.201143-2.578285 1.590857l-25.344 42.057143c-1.974857 3.565714-4.937143 5.357714-9.398858 5.357714H246.491429a9.892571 9.892571 0 0 1-9.398858-5.357714l-25.234285-42.057143c-0.804571-0.987429-1.590857-1.590857-2.486857-1.590857-0.987429 0-1.572571 0.896-1.572572 2.779428v144.219429c0 5.156571-2.578286 7.734857-7.826286 7.734857H138.788571c-5.138286 0-7.716571-2.578286-7.716571-7.734857v-270.445714c0-5.138286 2.56-7.716571 7.716571-7.716572h60.891429-0.109714z m596.224 0c19.309714 0 36.333714 3.858286 50.980571 11.593143a82.651429 82.651429 0 0 1 34.157714 33.060572c7.917714 14.354286 11.885714 30.683429 11.885715 49.188571a85.138286 85.138286 0 0 1-48.219429 80.384 116.041143 116.041143 0 0 1-52.48 11.574857h-42.057143c-2.267429 0-3.364571 1.005714-3.364571 3.181714v89.088c0 5.248-2.468571 7.716571-7.716572 7.716572h-61.275428c-5.156571 0-7.734857-2.56-7.734857-7.716572v-270.262857c0-5.229714 2.578286-7.808 7.734857-7.808h118.089143z m-12.672 65.645715H750.08c-2.267429 0-3.364571 1.170286-3.364571 3.346285v52.278857c0 2.176 1.097143 3.163429 3.364571 3.163429h33.060571c8.777143 0.420571 17.426286-2.377143 24.265143-7.917714a26.422857 26.422857 0 0 0 9.197715-20.992 27.501714 27.501714 0 0 0-9.197715-21.668572 35.236571 35.236571 0 0 0-24.265143-8.228571z" fill="#FFFFFF" p-id="1737" data-spm-anchor-id="a313x.search_index.0.i3.1d733a81hOiLuc" class=""></path></svg>