<svg viewBox="0 0 1024 1024" version="1.1" xmlns="http://www.w3.org/2000/svg" width="512" height="512">
    <path d="M0 0m512 0l0 0q512 0 512 512l0 0q0 512-512 512l0 0q-512 0-512-512l0 0q0-512 512-512Z" fill="#4C84FF"></path>
    <path d="M480.93866666 202.83733334a88.661333 88.661333 0 0 0-83.413333 88.448v16.384H315.47733366a75.264 75.264 0 0 0-75.178667 75.52l-0.128 99.754667a22.954667 22.954667 0 0 0 22.954667 23.04h39.253333a47.957333 47.957333 0 0 1 0 95.829333h-39.253333a22.954667 22.954667 0 0 0-23.04 22.954667L239.99999966 724.48000034a75.477333 75.477333 0 0 0 75.477334 75.52h99.754666a22.954667 22.954667 0 0 0 22.997334-22.997334v-39.381333a47.957333 47.957333 0 0 1 95.829333 0v39.381333c0 12.672 10.325333 22.954667 22.997333 22.954667h99.754667l4.949333-0.170667a75.477333 75.477333 0 0 0 70.528-75.349333v-82.005333h16.426667c48.938667 0 88.618667-39.68 88.618667-88.618667l-0.170667-5.205333a88.661333 88.661333 0 0 0-88.448-83.413334h-16.426667V383.14666634l-0.128-4.949333a75.477333 75.477333 0 0 0-75.349333-70.528h-82.048v-16.426667c0-48.938667-39.68-88.576-88.618667-88.618666l-5.205333 0.170666z m5.205333 45.781333a42.666667 42.666667 0 0 1 42.666667 42.666667V330.66666634c0 12.714667 10.282667 22.997333 22.997333 22.997334h105.002667c16.341333 0 29.525333 13.141333 29.525333 29.525333v105.002667c0 12.714667 10.282667 22.954667 22.997334 22.954666h39.381333a42.666667 42.666667 0 0 1 0 85.333334H709.33333366a22.954667 22.954667 0 0 0-22.997334 23.04v105.002666l-0.170666 3.413334a29.525333 29.525333 0 0 1-29.354667 26.112h-76.8v-16.426667a93.909333 93.909333 0 0 0-93.866667-93.866667l-5.504 0.170667A93.909333 93.909333 0 0 0 392.31999966 737.70666634v16.384h-76.8l-3.413333-0.170666a29.525333 29.525333 0 0 1-26.112-29.354667l0.085333-76.8h16.341334a93.909333 93.909333 0 0 0 93.866666-93.866667l-0.170666-5.546666a93.909333 93.909333 0 0 0-93.738667-88.32h-16.213333l0.085333-76.8c0-16.426667 13.056-29.525333 29.269333-29.525334h105.045334A22.954667 22.954667 0 0 0 443.47733366 330.66666634v-39.381333a42.666667 42.666667 0 0 1 42.666666-42.666667z" fill="#FFFFFF"></path>
</svg>